PathFileType	4	(X/Y/Z)	21_coords_data.trc
DataRate	CameraRate	NumFrames	NumMarkers	Units	OrigDataRate	OrigDataStartFrame	OrigNumFrames
30.0	30.0	6	21	m	30.0	32	62
Frame#	Time	THUMB_TIP	THUMB_IP	THUMB_MCP	THUMB_CMC	INDEX_TIP	INDEX_DIP	INDEX_PIP	INDEX_MCP	MIDDLE_TIP	MIDDLE_DIP	MIDDLE_PIP	MIDDLE_MCP	RING_TIP	RING_DIP	RING_PIP	RING_MCP	PINKY_TIP	PINKY_DIP	PINKY_PIP	PINKY_MCP	WRIST
X1	Y1	Z1	X2	Y2	Z2	X3	Y3	Z3	X4	Y4	Z4	X5	Y5	Z5	X6	Y6	Z6	X7	Y7	Z7	X8	Y8	Z8	X9	Y9	Z9	X10	Y10	Z10	X11	Y11	Z11	X12	Y12	Z12	X13	Y13	Z13	X14	Y14	Z14	X15	Y15	Z15	X16	Y16	Z16	X17	Y17	Z17	X18	Y18	Z18	X19	Y19	Z19	X20	Y20	Z20	X21	Y21	Z21
31	1.0333333333333334	-0.014300299644470214	-0.009139049530029296	0.897135986328125	-0.025203399658203125	0.006150760173797607	0.920177978515625	-0.038736598968505856	0.01935460090637207	0.9467249755859375	-0.050852100372314454	0.042932098388671874	0.9718599853515625	-0.014068499565124511	0.044806900024414065	0.9415770263671875	-0.007120709896087645	0.04423849868774414	0.9229089965820313	-0.0156899995803833	0.04147610092163086	0.8994710083007813	-0.05786140060424805	0.04107770156860351	0.9093740234375	-0.023719200134277342	0.055419601440429685	0.9468610229492187	-0.01086769962310791	0.060019798278808593	0.9308179931640626	-0.015370200157165528	0.06334889984130859	0.9019710083007813	-0.060760398864746094	0.06504949951171875	0.9100239868164063	-0.028230600357055664	0.06832270050048828	0.9487130126953125	-0.015097100257873535	0.07436930084228516	0.9332780151367187	-0.01838199996948242	0.08198560333251953	0.9062739868164063	-0.05917570114135742	0.08501360321044922	0.9181519775390625	-0.022101999282836914	0.08331909942626953	0.9420759887695312	-0.012338500022888183	0.09022129821777344	0.929176025390625	-0.022125299453735352	0.09824859619140625	0.9158330078125	-0.052479400634765624	0.0996082992553711	0.9284450073242188	-0.0809729995727539	0.06117150115966797	0.9945180053710938
32	1.0666666666666667	-0.014567099571228027	-0.009935429573059082	0.897718994140625	-0.02543320083618164	0.005626480102539063	0.9206510009765625	-0.039032901763916016	0.018834699630737306	0.9469650268554688	-0.05140409851074219	0.04283829879760742	0.9724099731445313	-0.005982190132141113	0.04542599868774414	0.9381380004882812	-0.0032796599864959707	0.044186199188232425	0.9186060180664063	-0.01591580009460449	0.041344799041748044	0.8967869873046875	-0.05732979965209961	0.0411786994934082	0.9094769897460937	-0.013959300041198731	0.05511709976196289	0.9455349731445313	-0.005843029975891113	0.06021429824829101	0.9270050048828125	-0.015656100273132325	0.06409649658203125	0.8994000244140625	-0.060615100860595704	0.06533360290527344	0.9103400268554688	-0.019683000564575195	0.06725769805908204	0.9480789794921874	-0.010236800193786621	0.07441310119628906	0.9309630126953125	-0.018342899322509765	0.08271779632568359	0.9049769897460938	-0.0587932014465332	0.08507749938964844	0.9184810180664063	-0.016818500518798827	0.08257610321044923	0.9415170288085938	-0.010424500465393066	0.09072709655761718	0.9281090087890626	-0.02199530029296875	0.09873970031738281	0.9160789794921875	-0.052196701049804686	0.09962270355224609	0.9290869750976563	-0.08153019714355468	0.061141399383544924	0.9947880249023437
33	1.1	-0.014326600074768067	-0.010426600456237793	0.8985230102539062	-0.025299299240112306	0.005095359802246094	0.9212440185546875	-0.03922140121459961	0.018374099731445312	0.9475960083007813	-0.05243080139160156	0.04247280120849609	0.9726229858398437	0.0059794697761535644	0.0464635009765625	0.9337349853515625	0.001181249976158142	0.04459199905395508	0.9133499755859374	-0.015366399765014648	0.04163970184326172	0.8950040283203125	-0.056413600921630856	0.04147280120849609	0.910166015625	-0.0043589301109313965	0.05609830093383789	0.9436019897460938	-0.00129312002658844	0.061119998931884766	0.9228980102539063	-0.015301300048828124	0.065152099609375	0.897719970703125	-0.06011700057983398	0.06570390319824218	0.9107650146484375	-0.009423219680786132	0.06733719635009766	0.9471320190429687	-0.005129640102386475	0.07518399810791015	0.928510986328125	-0.01789430046081543	0.08365699768066406	0.9041909790039062	-0.058337100982666014	0.08533080291748046	0.9191069946289062	-0.010895700454711913	0.08255139923095703	0.9418200073242188	-0.008267660140991211	0.09173760223388672	0.9272930297851563	-0.021805500030517577	0.09945760345458984	0.9166439819335938	-0.0517135009765625	0.0999551010131836	0.9297780151367188	-0.08196369934082032	0.06113639831542969	0.9950479736328125
34	1.1333333333333333	-0.014124099731445312	-0.011254899978637696	0.8995659790039062	-0.025139299392700196	0.0044288702011108395	0.9222039794921875	-0.03925749969482422	0.017985099792480468	0.9482919921875	-0.05327870178222656	0.0423120002746582	0.9731380004882813	0.01659429931640625	0.04697689819335937	0.9249080200195312	0.004618889808654785	0.044558799743652344	0.906822021484375	-0.015281000137329102	0.041847000122070314	0.8931810302734375	-0.055708999633789065	0.041714099884033205	0.9109299926757812	0.007664309978485107	0.05770050048828125	0.9375380249023437	0.003645060062408447	0.06253789901733399	0.9163079833984376	-0.015643199920654296	0.06647779846191407	0.8949000244140625	-0.059591400146484376	0.06599569702148438	0.9115640258789063	0.0031886899471282957	0.06908769989013672	0.9419979858398437	0.0008194029927253721	0.07697699737548828	0.9231489868164062	-0.017833900451660157	0.0851957015991211	0.902281005859375	-0.05768980026245117	0.08553420257568359	0.9196279907226562	-0.002320689916610717	0.0846780014038086	0.9377919921875	-0.006276000022888184	0.09463639831542969	0.9241300048828125	-0.022284000396728516	0.10138800048828125	0.9159219970703125	-0.05157720184326172	0.1003740005493164	0.9304669799804688	-0.08218049621582031	0.06102429962158203	0.9951539916992187
35	1.1666666666666667	-0.014283300399780274	-0.012326899528503419	0.9006380004882812	-0.02528070068359375	0.003717060089111328	0.9230689697265625	-0.039488300323486325	0.01752549934387207	0.9488499755859375	-0.05372010040283203	0.04240959930419922	0.9737509765625	0.024459299087524415	0.046605598449707034	0.9135830078125	0.006823470115661621	0.04428939819335938	0.8997230224609375	-0.01548490047454834	0.042124401092529296	0.8908140258789062	-0.054728900909423825	0.042203399658203126	0.911447998046875	0.018874900817871094	0.06051559829711914	0.9276630249023438	0.007801720142364502	0.06457550048828126	0.9082310180664063	-0.01623819923400879	0.06782710266113282	0.8917570190429688	-0.05872800064086914	0.06651390075683594	0.9121589965820313	0.014750200271606445	0.07256929779052734	0.9320679931640625	0.0046817798614501955	0.08041840362548829	0.9149630126953125	-0.018569700241088866	0.08726730346679687	0.8993480224609375	-0.05703329849243164	0.08590200042724609	0.92022900390625	0.005352910041809082	0.08966280364990234	0.93027197265625	-0.005115509986877442	0.0989716033935547	0.9191380004882812	-0.023406499862670897	0.10403199768066407	0.9139409790039063	-0.051096500396728514	0.10095800018310547	0.930989013671875	-0.08264150238037109	0.06143780136108398	0.9958569946289062
36	1.2	-0.014218299865722657	-0.01294279956817627	0.9013829956054688	-0.025224599838256836	0.0032489900588989263	0.9237880249023438	-0.03967530059814453	0.017331199645996095	0.9495640258789062	-0.053915401458740235	0.042335800170898434	0.9733729858398438	0.030173200607299805	0.046583999633789064	0.9011890258789063	0.008700260162353516	0.04455870056152344	0.8932470092773438	-0.014775400161743163	0.0429114990234375	0.8892349853515625	-0.05290140151977539	0.04291830062866211	0.911822998046875	0.028130300521850587	0.06474199676513671	0.9150029907226562	0.010803400039672851	0.0675031967163086	0.8996799926757812	-0.01650830078125	0.06969480133056641	0.8891480102539062	-0.05711589813232422	0.0671084976196289	0.9125449829101563	0.023171100616455078	0.07863899993896484	0.9200679931640625	0.00700915002822876	0.08478359985351562	0.9069210205078125	-0.01936549949645996	0.08949739837646484	0.8971329956054688	-0.05585580062866211	0.08641549682617188	0.9207340087890625	0.010337599754333496	0.09634940338134766	0.9222689819335937	-0.005047039985656738	0.10369000244140625	0.9145750122070313	-0.02428339958190918	0.10653099822998047	0.91327001953125	-0.0505817985534668	0.10172599792480469	0.9316929931640625	-0.0829542007446289	0.06130459976196289	0.995656005859375
